<mxfile host="app.diagrams.net" modified="2023-05-17T20:29:44.556Z" agent="Mozilla/5.0 (Windows NT 10.0; Win64; x64) AppleWebKit/537.36 (KHTML, like Gecko) Chrome/113.0.0.0 Safari/537.36 Edg/113.0.1774.42" etag="2yb0WTuyjtWgZsq8KP5E" version="21.3.2" type="device">
  <diagram name="Page-1" id="yXvFdDI3505ffVBM7fKJ">
    <mxGraphModel dx="1264" dy="764" grid="1" gridSize="10" guides="1" tooltips="1" connect="1" arrows="1" fold="1" page="1" pageScale="1" pageWidth="850" pageHeight="1100" math="0" shadow="0">
      <root>
        <mxCell id="0" />
        <mxCell id="1" parent="0" />
        <mxCell id="_mpX8QCAubQIfBplY78N-91" value="" style="rounded=0;whiteSpace=wrap;html=1;fontColor=default;fillColor=none;" vertex="1" parent="1">
          <mxGeometry x="173.25" y="50" width="584.5" height="680" as="geometry" />
        </mxCell>
        <mxCell id="_mpX8QCAubQIfBplY78N-110" value="" style="ellipse;whiteSpace=wrap;html=1;" vertex="1" parent="1">
          <mxGeometry x="216.13" y="500.13000000000005" width="113.75" height="75.83" as="geometry" />
        </mxCell>
        <mxCell id="_mpX8QCAubQIfBplY78N-2" value="Actor" style="shape=umlActor;verticalLabelPosition=bottom;verticalAlign=top;outlineConnect=0;html=1;horizontal=1;fontColor=none;noLabel=1;" vertex="1" parent="1">
          <mxGeometry x="60" y="264.15999999999997" width="40" height="80" as="geometry" />
        </mxCell>
        <mxCell id="_mpX8QCAubQIfBplY78N-3" value="Customer" style="text;html=1;align=center;verticalAlign=middle;resizable=0;points=[];autosize=1;strokeColor=none;fillColor=none;" vertex="1" parent="1">
          <mxGeometry x="40" y="344.15999999999997" width="80" height="30" as="geometry" />
        </mxCell>
        <mxCell id="_mpX8QCAubQIfBplY78N-4" value="Actor" style="shape=umlActor;verticalLabelPosition=bottom;verticalAlign=top;outlineConnect=0;html=1;horizontal=1;fontColor=none;noLabel=1;" vertex="1" parent="1">
          <mxGeometry x="830" y="420" width="40" height="80" as="geometry" />
        </mxCell>
        <mxCell id="_mpX8QCAubQIfBplY78N-5" value="Payment &lt;br&gt;Authentication &lt;br&gt;Services" style="text;html=1;align=center;verticalAlign=middle;resizable=0;points=[];autosize=1;strokeColor=none;fillColor=none;" vertex="1" parent="1">
          <mxGeometry x="800" y="500.13" width="100" height="60" as="geometry" />
        </mxCell>
        <mxCell id="_mpX8QCAubQIfBplY78N-6" value="" style="ellipse;whiteSpace=wrap;html=1;" vertex="1" parent="1">
          <mxGeometry x="220" y="110" width="105" height="70" as="geometry" />
        </mxCell>
        <mxCell id="_mpX8QCAubQIfBplY78N-7" style="edgeStyle=orthogonalEdgeStyle;rounded=0;orthogonalLoop=1;jettySize=auto;html=1;exitX=1;exitY=0.5;exitDx=0;exitDy=0;" edge="1" parent="1" source="_mpX8QCAubQIfBplY78N-6" target="_mpX8QCAubQIfBplY78N-10">
          <mxGeometry relative="1" as="geometry" />
        </mxCell>
        <mxCell id="_mpX8QCAubQIfBplY78N-8" value="Browse Restaurants" style="text;html=1;strokeColor=none;fillColor=none;align=center;verticalAlign=middle;whiteSpace=wrap;rounded=0;" vertex="1" parent="1">
          <mxGeometry x="228" y="122.5" width="90" height="45" as="geometry" />
        </mxCell>
        <mxCell id="_mpX8QCAubQIfBplY78N-9" style="edgeStyle=orthogonalEdgeStyle;rounded=0;orthogonalLoop=1;jettySize=auto;html=1;exitX=1;exitY=0.5;exitDx=0;exitDy=0;entryX=0;entryY=0.5;entryDx=0;entryDy=0;" edge="1" parent="1" source="_mpX8QCAubQIfBplY78N-10" target="_mpX8QCAubQIfBplY78N-12">
          <mxGeometry relative="1" as="geometry" />
        </mxCell>
        <mxCell id="_mpX8QCAubQIfBplY78N-10" value="" style="ellipse;whiteSpace=wrap;html=1;" vertex="1" parent="1">
          <mxGeometry x="413" y="110" width="105" height="70" as="geometry" />
        </mxCell>
        <mxCell id="_mpX8QCAubQIfBplY78N-11" value="Place Order" style="text;html=1;strokeColor=none;fillColor=none;align=center;verticalAlign=middle;whiteSpace=wrap;rounded=0;" vertex="1" parent="1">
          <mxGeometry x="425.5" y="125" width="80" height="40" as="geometry" />
        </mxCell>
        <mxCell id="_mpX8QCAubQIfBplY78N-12" value="" style="ellipse;whiteSpace=wrap;html=1;" vertex="1" parent="1">
          <mxGeometry x="585.22" y="110" width="105" height="70" as="geometry" />
        </mxCell>
        <mxCell id="_mpX8QCAubQIfBplY78N-13" value="Validate order" style="text;html=1;strokeColor=none;fillColor=none;align=center;verticalAlign=middle;whiteSpace=wrap;rounded=0;" vertex="1" parent="1">
          <mxGeometry x="587.72" y="120" width="100" height="50" as="geometry" />
        </mxCell>
        <mxCell id="_mpX8QCAubQIfBplY78N-14" value="Actor" style="shape=umlActor;verticalLabelPosition=bottom;verticalAlign=top;html=1;outlineConnect=0;fontColor=none;noLabel=1;" vertex="1" parent="1">
          <mxGeometry x="830" y="150" width="40" height="80" as="geometry" />
        </mxCell>
        <mxCell id="_mpX8QCAubQIfBplY78N-15" value="System" style="text;html=1;strokeColor=none;fillColor=none;align=center;verticalAlign=middle;whiteSpace=wrap;rounded=0;" vertex="1" parent="1">
          <mxGeometry x="820" y="230" width="60" height="30" as="geometry" />
        </mxCell>
        <mxCell id="_mpX8QCAubQIfBplY78N-16" value="" style="endArrow=none;html=1;rounded=0;" edge="1" parent="1">
          <mxGeometry width="50" height="50" relative="1" as="geometry">
            <mxPoint x="110" y="310" as="sourcePoint" />
            <mxPoint x="220" y="140" as="targetPoint" />
          </mxGeometry>
        </mxCell>
        <mxCell id="_mpX8QCAubQIfBplY78N-18" value="" style="endArrow=none;html=1;rounded=0;exitX=1;exitY=0.5;exitDx=0;exitDy=0;" edge="1" parent="1" source="_mpX8QCAubQIfBplY78N-13" target="_mpX8QCAubQIfBplY78N-14">
          <mxGeometry width="50" height="50" relative="1" as="geometry">
            <mxPoint x="640" y="145" as="sourcePoint" />
            <mxPoint x="740" y="270" as="targetPoint" />
            <Array as="points">
              <mxPoint x="810" y="180" />
            </Array>
          </mxGeometry>
        </mxCell>
        <mxCell id="_mpX8QCAubQIfBplY78N-20" value="" style="ellipse;whiteSpace=wrap;html=1;" vertex="1" parent="1">
          <mxGeometry x="228" y="220.00000000000003" width="105" height="70" as="geometry" />
        </mxCell>
        <mxCell id="_mpX8QCAubQIfBplY78N-21" value="Choose food" style="text;html=1;strokeColor=none;fillColor=none;align=center;verticalAlign=middle;whiteSpace=wrap;rounded=0;" vertex="1" parent="1">
          <mxGeometry x="251" y="240.00000000000003" width="60" height="30" as="geometry" />
        </mxCell>
        <mxCell id="_mpX8QCAubQIfBplY78N-22" value="" style="ellipse;whiteSpace=wrap;html=1;" vertex="1" parent="1">
          <mxGeometry x="205.5" y="338.16" width="105" height="70" as="geometry" />
        </mxCell>
        <mxCell id="_mpX8QCAubQIfBplY78N-25" value="Add Specials" style="text;html=1;strokeColor=none;fillColor=none;align=center;verticalAlign=middle;whiteSpace=wrap;rounded=0;" vertex="1" parent="1">
          <mxGeometry x="206" y="347.16" width="104" height="52" as="geometry" />
        </mxCell>
        <mxCell id="_mpX8QCAubQIfBplY78N-33" value="" style="ellipse;whiteSpace=wrap;html=1;" vertex="1" parent="1">
          <mxGeometry x="325.5" y="338.16" width="93" height="62" as="geometry" />
        </mxCell>
        <mxCell id="_mpX8QCAubQIfBplY78N-34" value="Pickup" style="text;html=1;strokeColor=none;fillColor=none;align=center;verticalAlign=middle;whiteSpace=wrap;rounded=0;" vertex="1" parent="1">
          <mxGeometry x="342" y="354.16" width="60" height="30" as="geometry" />
        </mxCell>
        <mxCell id="_mpX8QCAubQIfBplY78N-35" value="" style="endArrow=none;dashed=1;html=1;rounded=0;entryX=0.5;entryY=0;entryDx=0;entryDy=0;exitX=0;exitY=1;exitDx=0;exitDy=0;" edge="1" parent="1" source="_mpX8QCAubQIfBplY78N-52" target="_mpX8QCAubQIfBplY78N-33">
          <mxGeometry width="50" height="50" relative="1" as="geometry">
            <mxPoint x="299" y="536.1700000000001" as="sourcePoint" />
            <mxPoint x="409" y="516.1700000000001" as="targetPoint" />
          </mxGeometry>
        </mxCell>
        <mxCell id="_mpX8QCAubQIfBplY78N-36" value="" style="ellipse;whiteSpace=wrap;html=1;" vertex="1" parent="1">
          <mxGeometry x="311" y="422.6700000000001" width="105" height="70" as="geometry" />
        </mxCell>
        <mxCell id="_mpX8QCAubQIfBplY78N-37" value="Provide Tracking ID" style="text;html=1;strokeColor=none;fillColor=none;align=center;verticalAlign=middle;whiteSpace=wrap;rounded=0;" vertex="1" parent="1">
          <mxGeometry x="318.5" y="435.1700000000001" width="90" height="45" as="geometry" />
        </mxCell>
        <mxCell id="_mpX8QCAubQIfBplY78N-44" value="" style="endArrow=none;dashed=1;html=1;rounded=0;entryX=1;entryY=0;entryDx=0;entryDy=0;exitX=0;exitY=1;exitDx=0;exitDy=0;" edge="1" parent="1" source="_mpX8QCAubQIfBplY78N-66" target="_mpX8QCAubQIfBplY78N-37">
          <mxGeometry width="50" height="50" relative="1" as="geometry">
            <mxPoint x="302" y="641.1700000000001" as="sourcePoint" />
            <mxPoint x="366" y="596.1700000000001" as="targetPoint" />
          </mxGeometry>
        </mxCell>
        <mxCell id="_mpX8QCAubQIfBplY78N-45" value="&amp;lt;&amp;lt;include&amp;gt;&amp;gt;" style="text;html=1;strokeColor=none;fillColor=none;align=center;verticalAlign=middle;whiteSpace=wrap;rounded=0;labelBackgroundColor=default;" vertex="1" parent="1">
          <mxGeometry x="391.5" y="399.1600000000001" width="60" height="30" as="geometry" />
        </mxCell>
        <mxCell id="_mpX8QCAubQIfBplY78N-46" value="" style="endArrow=none;dashed=1;html=1;rounded=0;entryX=0;entryY=1;entryDx=0;entryDy=0;exitX=1;exitY=0;exitDx=0;exitDy=0;" edge="1" parent="1" source="_mpX8QCAubQIfBplY78N-20" target="_mpX8QCAubQIfBplY78N-10">
          <mxGeometry width="50" height="50" relative="1" as="geometry">
            <mxPoint x="330.5" y="210" as="sourcePoint" />
            <mxPoint x="380.5" y="160" as="targetPoint" />
          </mxGeometry>
        </mxCell>
        <mxCell id="_mpX8QCAubQIfBplY78N-47" value="" style="endArrow=none;dashed=1;html=1;dashPattern=1 3;strokeWidth=2;rounded=0;entryX=0.5;entryY=1;entryDx=0;entryDy=0;exitX=0.5;exitY=0;exitDx=0;exitDy=0;" edge="1" parent="1" source="_mpX8QCAubQIfBplY78N-22" target="_mpX8QCAubQIfBplY78N-20">
          <mxGeometry width="50" height="50" relative="1" as="geometry">
            <mxPoint x="340" y="330" as="sourcePoint" />
            <mxPoint x="390" y="280" as="targetPoint" />
          </mxGeometry>
        </mxCell>
        <mxCell id="_mpX8QCAubQIfBplY78N-48" value="&amp;lt;&amp;lt;include&amp;gt;&amp;gt;" style="text;html=1;strokeColor=none;fillColor=none;align=center;verticalAlign=middle;whiteSpace=wrap;rounded=0;labelBackgroundColor=default;" vertex="1" parent="1">
          <mxGeometry x="319" y="180" width="60" height="30" as="geometry" />
        </mxCell>
        <mxCell id="_mpX8QCAubQIfBplY78N-49" value="&amp;lt;&amp;lt;include&amp;gt;&amp;gt;" style="text;html=1;strokeColor=none;fillColor=none;align=center;verticalAlign=middle;whiteSpace=wrap;rounded=0;labelBackgroundColor=default;" vertex="1" parent="1">
          <mxGeometry x="250.5" y="300" width="60" height="30" as="geometry" />
        </mxCell>
        <mxCell id="_mpX8QCAubQIfBplY78N-52" value="" style="ellipse;whiteSpace=wrap;html=1;" vertex="1" parent="1">
          <mxGeometry x="369" y="230.00000000000003" width="105" height="70" as="geometry" />
        </mxCell>
        <mxCell id="_mpX8QCAubQIfBplY78N-53" value="Choose Delivery/Pickup" style="text;html=1;strokeColor=none;fillColor=none;align=center;verticalAlign=middle;whiteSpace=wrap;rounded=0;" vertex="1" parent="1">
          <mxGeometry x="391.5" y="250.00000000000003" width="60" height="30" as="geometry" />
        </mxCell>
        <mxCell id="_mpX8QCAubQIfBplY78N-54" value="" style="endArrow=none;dashed=1;html=1;rounded=0;entryX=0.5;entryY=1;entryDx=0;entryDy=0;exitX=0.5;exitY=0;exitDx=0;exitDy=0;" edge="1" parent="1" source="_mpX8QCAubQIfBplY78N-52" target="_mpX8QCAubQIfBplY78N-10">
          <mxGeometry width="50" height="50" relative="1" as="geometry">
            <mxPoint x="422" y="230" as="sourcePoint" />
            <mxPoint x="426" y="180" as="targetPoint" />
          </mxGeometry>
        </mxCell>
        <mxCell id="_mpX8QCAubQIfBplY78N-51" value="&amp;lt;&amp;lt;include&amp;gt;&amp;gt;" style="text;html=1;strokeColor=none;fillColor=none;align=center;verticalAlign=middle;whiteSpace=wrap;rounded=0;labelBackgroundColor=default;" vertex="1" parent="1">
          <mxGeometry x="395.5" y="190" width="60" height="30" as="geometry" />
        </mxCell>
        <mxCell id="_mpX8QCAubQIfBplY78N-60" value="" style="ellipse;whiteSpace=wrap;html=1;" vertex="1" parent="1">
          <mxGeometry x="502.22" y="230.13000000000002" width="105" height="70" as="geometry" />
        </mxCell>
        <mxCell id="_mpX8QCAubQIfBplY78N-61" value="Payment Details" style="text;html=1;strokeColor=none;fillColor=none;align=center;verticalAlign=middle;whiteSpace=wrap;rounded=0;" vertex="1" parent="1">
          <mxGeometry x="525.22" y="250.13000000000002" width="60" height="30" as="geometry" />
        </mxCell>
        <mxCell id="_mpX8QCAubQIfBplY78N-62" value="" style="endArrow=none;dashed=1;html=1;rounded=0;entryX=1;entryY=1;entryDx=0;entryDy=0;exitX=0.5;exitY=0;exitDx=0;exitDy=0;" edge="1" source="_mpX8QCAubQIfBplY78N-60" parent="1" target="_mpX8QCAubQIfBplY78N-10">
          <mxGeometry width="50" height="50" relative="1" as="geometry">
            <mxPoint x="604.72" y="220.13" as="sourcePoint" />
            <mxPoint x="663.22" y="180.13" as="targetPoint" />
          </mxGeometry>
        </mxCell>
        <mxCell id="_mpX8QCAubQIfBplY78N-63" value="&amp;lt;&amp;lt;include&amp;gt;&amp;gt;" style="text;html=1;strokeColor=none;fillColor=none;align=center;verticalAlign=middle;whiteSpace=wrap;rounded=0;labelBackgroundColor=default;" vertex="1" parent="1">
          <mxGeometry x="496.75" y="180" width="60" height="30" as="geometry" />
        </mxCell>
        <mxCell id="_mpX8QCAubQIfBplY78N-64" value="&amp;lt;&amp;lt;include&amp;gt;&amp;gt;" style="text;html=1;strokeColor=none;fillColor=none;align=center;verticalAlign=middle;whiteSpace=wrap;rounded=0;labelBackgroundColor=default;" vertex="1" parent="1">
          <mxGeometry x="342" y="300.13" width="60" height="30" as="geometry" />
        </mxCell>
        <mxCell id="_mpX8QCAubQIfBplY78N-66" value="" style="ellipse;whiteSpace=wrap;html=1;" vertex="1" parent="1">
          <mxGeometry x="425" y="338.29" width="93" height="62" as="geometry" />
        </mxCell>
        <mxCell id="_mpX8QCAubQIfBplY78N-67" value="&amp;lt;&amp;lt;include&amp;gt;&amp;gt;" style="text;html=1;strokeColor=none;fillColor=none;align=center;verticalAlign=middle;whiteSpace=wrap;rounded=0;labelBackgroundColor=default;" vertex="1" parent="1">
          <mxGeometry x="441.5" y="300.26" width="60" height="30" as="geometry" />
        </mxCell>
        <mxCell id="_mpX8QCAubQIfBplY78N-68" value="" style="endArrow=none;dashed=1;html=1;rounded=0;entryX=0.5;entryY=0;entryDx=0;entryDy=0;exitX=0;exitY=0;exitDx=0;exitDy=0;" edge="1" target="_mpX8QCAubQIfBplY78N-66" parent="1" source="_mpX8QCAubQIfBplY78N-67">
          <mxGeometry width="50" height="50" relative="1" as="geometry">
            <mxPoint x="484.5" y="290.13" as="sourcePoint" />
            <mxPoint x="508.5" y="516.3000000000001" as="targetPoint" />
          </mxGeometry>
        </mxCell>
        <mxCell id="_mpX8QCAubQIfBplY78N-65" value="Delivery" style="text;html=1;strokeColor=none;fillColor=none;align=center;verticalAlign=middle;whiteSpace=wrap;rounded=0;" vertex="1" parent="1">
          <mxGeometry x="441.5" y="354.29" width="60" height="30" as="geometry" />
        </mxCell>
        <mxCell id="_mpX8QCAubQIfBplY78N-69" value="" style="ellipse;whiteSpace=wrap;html=1;" vertex="1" parent="1">
          <mxGeometry x="523.75" y="346.03000000000003" width="93" height="62" as="geometry" />
        </mxCell>
        <mxCell id="_mpX8QCAubQIfBplY78N-70" value="Use Promocode" style="text;html=1;strokeColor=none;fillColor=none;align=center;verticalAlign=middle;whiteSpace=wrap;rounded=0;" vertex="1" parent="1">
          <mxGeometry x="540.25" y="362.03000000000003" width="60" height="30" as="geometry" />
        </mxCell>
        <mxCell id="_mpX8QCAubQIfBplY78N-71" value="" style="endArrow=none;dashed=1;html=1;rounded=0;entryX=0.5;entryY=0;entryDx=0;entryDy=0;exitX=0.5;exitY=1;exitDx=0;exitDy=0;" edge="1" target="_mpX8QCAubQIfBplY78N-69" parent="1" source="_mpX8QCAubQIfBplY78N-60">
          <mxGeometry width="50" height="50" relative="1" as="geometry">
            <mxPoint x="583.25" y="297.87" as="sourcePoint" />
            <mxPoint x="607.25" y="524.0400000000001" as="targetPoint" />
          </mxGeometry>
        </mxCell>
        <mxCell id="_mpX8QCAubQIfBplY78N-72" value="&amp;lt;&amp;lt;include&amp;gt;&amp;gt;" style="text;html=1;strokeColor=none;fillColor=none;align=center;verticalAlign=middle;whiteSpace=wrap;rounded=0;labelBackgroundColor=default;" vertex="1" parent="1">
          <mxGeometry x="540.25" y="308" width="60" height="30" as="geometry" />
        </mxCell>
        <mxCell id="_mpX8QCAubQIfBplY78N-73" value="" style="ellipse;whiteSpace=wrap;html=1;" vertex="1" parent="1">
          <mxGeometry x="623.25" y="346.16" width="93" height="62" as="geometry" />
        </mxCell>
        <mxCell id="_mpX8QCAubQIfBplY78N-74" value="&amp;lt;&amp;lt;include&amp;gt;&amp;gt;" style="text;html=1;strokeColor=none;fillColor=none;align=center;verticalAlign=middle;whiteSpace=wrap;rounded=0;labelBackgroundColor=default;" vertex="1" parent="1">
          <mxGeometry x="616.75" y="308" width="60" height="30" as="geometry" />
        </mxCell>
        <mxCell id="_mpX8QCAubQIfBplY78N-75" value="" style="endArrow=none;dashed=1;html=1;rounded=0;entryX=0.5;entryY=0;entryDx=0;entryDy=0;exitX=1;exitY=1;exitDx=0;exitDy=0;" edge="1" source="_mpX8QCAubQIfBplY78N-60" target="_mpX8QCAubQIfBplY78N-73" parent="1">
          <mxGeometry width="50" height="50" relative="1" as="geometry">
            <mxPoint x="682.75" y="298" as="sourcePoint" />
            <mxPoint x="706.75" y="524.1700000000001" as="targetPoint" />
          </mxGeometry>
        </mxCell>
        <mxCell id="_mpX8QCAubQIfBplY78N-76" value="Choose Payment Method" style="text;html=1;strokeColor=none;fillColor=none;align=center;verticalAlign=middle;whiteSpace=wrap;rounded=0;" vertex="1" parent="1">
          <mxGeometry x="639.75" y="362.16" width="60" height="30" as="geometry" />
        </mxCell>
        <mxCell id="_mpX8QCAubQIfBplY78N-77" value="" style="ellipse;whiteSpace=wrap;html=1;" vertex="1" parent="1">
          <mxGeometry x="525.22" y="479.04" width="93" height="62" as="geometry" />
        </mxCell>
        <mxCell id="_mpX8QCAubQIfBplY78N-78" value="Cash On Delivery" style="text;html=1;strokeColor=none;fillColor=none;align=center;verticalAlign=middle;whiteSpace=wrap;rounded=0;" vertex="1" parent="1">
          <mxGeometry x="541.72" y="495.04" width="60" height="30" as="geometry" />
        </mxCell>
        <mxCell id="_mpX8QCAubQIfBplY78N-79" value="" style="endArrow=none;dashed=1;html=1;rounded=0;entryX=0.5;entryY=0;entryDx=0;entryDy=0;exitX=0;exitY=1;exitDx=0;exitDy=0;" edge="1" target="_mpX8QCAubQIfBplY78N-77" parent="1" source="_mpX8QCAubQIfBplY78N-73">
          <mxGeometry width="50" height="50" relative="1" as="geometry">
            <mxPoint x="597.267744670253" y="414.06847641787294" as="sourcePoint" />
            <mxPoint x="608.72" y="657.0500000000001" as="targetPoint" />
          </mxGeometry>
        </mxCell>
        <mxCell id="_mpX8QCAubQIfBplY78N-80" value="&amp;lt;&amp;lt;include&amp;gt;&amp;gt;" style="text;html=1;strokeColor=none;fillColor=none;align=center;verticalAlign=middle;whiteSpace=wrap;rounded=0;labelBackgroundColor=default;" vertex="1" parent="1">
          <mxGeometry x="556.75" y="429.15999999999997" width="60" height="30" as="geometry" />
        </mxCell>
        <mxCell id="_mpX8QCAubQIfBplY78N-81" value="" style="ellipse;whiteSpace=wrap;html=1;" vertex="1" parent="1">
          <mxGeometry x="624.72" y="479.17" width="93" height="62" as="geometry" />
        </mxCell>
        <mxCell id="_mpX8QCAubQIfBplY78N-84" value="Online Payment" style="text;html=1;strokeColor=none;fillColor=none;align=center;verticalAlign=middle;whiteSpace=wrap;rounded=0;" vertex="1" parent="1">
          <mxGeometry x="641.22" y="495.17" width="60" height="30" as="geometry" />
        </mxCell>
        <mxCell id="_mpX8QCAubQIfBplY78N-85" value="" style="endArrow=none;dashed=1;html=1;rounded=0;entryX=0.5;entryY=0;entryDx=0;entryDy=0;exitX=0.5;exitY=1;exitDx=0;exitDy=0;" edge="1" parent="1" source="_mpX8QCAubQIfBplY78N-86" target="_mpX8QCAubQIfBplY78N-81">
          <mxGeometry width="50" height="50" relative="1" as="geometry">
            <mxPoint x="629.97" y="423.03" as="sourcePoint" />
            <mxPoint x="654.72" y="437.66999999999996" as="targetPoint" />
          </mxGeometry>
        </mxCell>
        <mxCell id="_mpX8QCAubQIfBplY78N-87" value="" style="endArrow=none;dashed=1;html=1;rounded=0;entryX=0.5;entryY=0;entryDx=0;entryDy=0;exitX=0.5;exitY=1;exitDx=0;exitDy=0;" edge="1" parent="1" source="_mpX8QCAubQIfBplY78N-73" target="_mpX8QCAubQIfBplY78N-86">
          <mxGeometry width="50" height="50" relative="1" as="geometry">
            <mxPoint x="670" y="408" as="sourcePoint" />
            <mxPoint x="671" y="479" as="targetPoint" />
          </mxGeometry>
        </mxCell>
        <mxCell id="_mpX8QCAubQIfBplY78N-86" value="&amp;lt;&amp;lt;include&amp;gt;&amp;gt;" style="text;html=1;strokeColor=none;fillColor=none;align=center;verticalAlign=middle;whiteSpace=wrap;rounded=0;labelBackgroundColor=default;" vertex="1" parent="1">
          <mxGeometry x="639.75" y="429.16" width="60" height="30" as="geometry" />
        </mxCell>
        <mxCell id="_mpX8QCAubQIfBplY78N-89" value="" style="endArrow=none;html=1;rounded=0;exitX=1;exitY=0.5;exitDx=0;exitDy=0;" edge="1" parent="1" source="_mpX8QCAubQIfBplY78N-81">
          <mxGeometry width="50" height="50" relative="1" as="geometry">
            <mxPoint x="780" y="520" as="sourcePoint" />
            <mxPoint x="830" y="470" as="targetPoint" />
          </mxGeometry>
        </mxCell>
        <mxCell id="_mpX8QCAubQIfBplY78N-97" value="Actor" style="shape=umlActor;verticalLabelPosition=bottom;verticalAlign=top;html=1;outlineConnect=0;fontColor=none;noLabel=1;" vertex="1" parent="1">
          <mxGeometry x="830" y="600" width="40" height="80" as="geometry" />
        </mxCell>
        <mxCell id="_mpX8QCAubQIfBplY78N-98" value="Restaurant" style="text;html=1;strokeColor=none;fillColor=none;align=center;verticalAlign=middle;whiteSpace=wrap;rounded=0;" vertex="1" parent="1">
          <mxGeometry x="820" y="680" width="60" height="30" as="geometry" />
        </mxCell>
        <mxCell id="_mpX8QCAubQIfBplY78N-99" value="" style="endArrow=none;html=1;rounded=0;exitX=1;exitY=0.5;exitDx=0;exitDy=0;" edge="1" parent="1" source="_mpX8QCAubQIfBplY78N-95">
          <mxGeometry width="50" height="50" relative="1" as="geometry">
            <mxPoint x="780" y="240" as="sourcePoint" />
            <mxPoint x="830" y="190" as="targetPoint" />
          </mxGeometry>
        </mxCell>
        <mxCell id="_mpX8QCAubQIfBplY78N-103" value="" style="endArrow=none;html=1;rounded=0;exitX=1;exitY=0.75;exitDx=0;exitDy=0;" edge="1" parent="1" source="_mpX8QCAubQIfBplY78N-102">
          <mxGeometry width="50" height="50" relative="1" as="geometry">
            <mxPoint x="770" y="661" as="sourcePoint" />
            <mxPoint x="820" y="650" as="targetPoint" />
          </mxGeometry>
        </mxCell>
        <mxCell id="_mpX8QCAubQIfBplY78N-93" value="Placing an Order" style="text;html=1;strokeColor=none;fillColor=none;align=center;verticalAlign=top;whiteSpace=wrap;rounded=0;fontSize=17;" vertex="1" parent="1">
          <mxGeometry x="386.64288793103447" y="62.0398525" width="157.71422413793104" height="33.320625" as="geometry" />
        </mxCell>
        <mxCell id="_mpX8QCAubQIfBplY78N-95" value="" style="ellipse;whiteSpace=wrap;html=1;" vertex="1" parent="1">
          <mxGeometry x="587.72" y="560.1300000000001" width="112.5" height="75" as="geometry" />
        </mxCell>
        <mxCell id="_mpX8QCAubQIfBplY78N-96" value="Notify Restaurant" style="text;html=1;strokeColor=none;fillColor=none;align=center;verticalAlign=middle;whiteSpace=wrap;rounded=0;" vertex="1" parent="1">
          <mxGeometry x="599.72" y="575.5500000000001" width="88.5" height="44.16" as="geometry" />
        </mxCell>
        <mxCell id="_mpX8QCAubQIfBplY78N-100" value="" style="endArrow=none;html=1;rounded=0;exitX=1;exitY=0.5;exitDx=0;exitDy=0;" edge="1" parent="1" source="_mpX8QCAubQIfBplY78N-95">
          <mxGeometry width="50" height="50" relative="1" as="geometry">
            <mxPoint x="727.75" y="640.84" as="sourcePoint" />
            <mxPoint x="817.75" y="650.84" as="targetPoint" />
          </mxGeometry>
        </mxCell>
        <mxCell id="_mpX8QCAubQIfBplY78N-101" value="" style="ellipse;whiteSpace=wrap;html=1;" vertex="1" parent="1">
          <mxGeometry x="457.75" y="603.7900000000001" width="120" height="80" as="geometry" />
        </mxCell>
        <mxCell id="_mpX8QCAubQIfBplY78N-102" value="Prepare Food" style="text;html=1;strokeColor=none;fillColor=none;align=center;verticalAlign=middle;whiteSpace=wrap;rounded=0;" vertex="1" parent="1">
          <mxGeometry x="461" y="613.21" width="113.5" height="61.16" as="geometry" />
        </mxCell>
        <mxCell id="_mpX8QCAubQIfBplY78N-104" value="" style="ellipse;whiteSpace=wrap;html=1;" vertex="1" parent="1">
          <mxGeometry x="282" y="630" width="120" height="80" as="geometry" />
        </mxCell>
        <mxCell id="_mpX8QCAubQIfBplY78N-105" value="Start Delivery" style="text;html=1;strokeColor=none;fillColor=none;align=center;verticalAlign=middle;whiteSpace=wrap;rounded=0;" vertex="1" parent="1">
          <mxGeometry x="312" y="654" width="60" height="30" as="geometry" />
        </mxCell>
        <mxCell id="_mpX8QCAubQIfBplY78N-107" value="" style="ellipse;whiteSpace=wrap;html=1;" vertex="1" parent="1">
          <mxGeometry x="380" y="500.13000000000005" width="113.75" height="75.83" as="geometry" />
        </mxCell>
        <mxCell id="_mpX8QCAubQIfBplY78N-108" value="Delivery Location" style="text;html=1;strokeColor=none;fillColor=none;align=center;verticalAlign=middle;whiteSpace=wrap;rounded=0;" vertex="1" parent="1">
          <mxGeometry x="398.44" y="519.01" width="76.88" height="38.08" as="geometry" />
        </mxCell>
        <mxCell id="_mpX8QCAubQIfBplY78N-109" value="Cash Needed" style="text;html=1;strokeColor=none;fillColor=none;align=center;verticalAlign=middle;whiteSpace=wrap;rounded=0;" vertex="1" parent="1">
          <mxGeometry x="234.57" y="519.01" width="76.88" height="38.08" as="geometry" />
        </mxCell>
        <mxCell id="_mpX8QCAubQIfBplY78N-111" value="" style="endArrow=classic;html=1;rounded=0;exitX=0;exitY=0.5;exitDx=0;exitDy=0;entryX=1;entryY=0.5;entryDx=0;entryDy=0;" edge="1" parent="1" source="_mpX8QCAubQIfBplY78N-102" target="_mpX8QCAubQIfBplY78N-104">
          <mxGeometry width="50" height="50" relative="1" as="geometry">
            <mxPoint x="300" y="630" as="sourcePoint" />
            <mxPoint x="350" y="580" as="targetPoint" />
          </mxGeometry>
        </mxCell>
        <mxCell id="_mpX8QCAubQIfBplY78N-112" value="" style="endArrow=none;dashed=1;html=1;dashPattern=1 3;strokeWidth=2;rounded=0;entryX=0.5;entryY=1;entryDx=0;entryDy=0;exitX=1;exitY=0;exitDx=0;exitDy=0;" edge="1" parent="1" source="_mpX8QCAubQIfBplY78N-104" target="_mpX8QCAubQIfBplY78N-107">
          <mxGeometry width="50" height="50" relative="1" as="geometry">
            <mxPoint x="240" y="650" as="sourcePoint" />
            <mxPoint x="290" y="600" as="targetPoint" />
          </mxGeometry>
        </mxCell>
        <mxCell id="_mpX8QCAubQIfBplY78N-113" value="" style="endArrow=none;dashed=1;html=1;dashPattern=1 3;strokeWidth=2;rounded=0;exitX=0;exitY=0;exitDx=0;exitDy=0;entryX=0.5;entryY=1;entryDx=0;entryDy=0;" edge="1" parent="1" source="_mpX8QCAubQIfBplY78N-104" target="_mpX8QCAubQIfBplY78N-110">
          <mxGeometry width="50" height="50" relative="1" as="geometry">
            <mxPoint x="200" y="650" as="sourcePoint" />
            <mxPoint x="250" y="600" as="targetPoint" />
          </mxGeometry>
        </mxCell>
        <mxCell id="_mpX8QCAubQIfBplY78N-115" value="&amp;lt;&amp;lt;include&amp;gt;&amp;gt;" style="text;html=1;strokeColor=none;fillColor=none;align=center;verticalAlign=middle;whiteSpace=wrap;rounded=0;labelBackgroundColor=default;" vertex="1" parent="1">
          <mxGeometry x="369" y="589.71" width="60" height="30" as="geometry" />
        </mxCell>
        <mxCell id="_mpX8QCAubQIfBplY78N-117" value="&amp;lt;&amp;lt;include&amp;gt;&amp;gt;" style="text;html=1;strokeColor=none;fillColor=none;align=center;verticalAlign=middle;whiteSpace=wrap;rounded=0;labelBackgroundColor=default;" vertex="1" parent="1">
          <mxGeometry x="242.5" y="589.71" width="60" height="30" as="geometry" />
        </mxCell>
      </root>
    </mxGraphModel>
  </diagram>
</mxfile>
